<?xml version='1.0' encoding='utf-8'?>
<svg xmlns="http://www.w3.org/2000/svg" version="1.1" id="Layer_1" x="0px" y="0px" viewBox="0 0 2652.048 587.79" enable-background="new 0 0 2652.048 587.79"> <g> <path fill="none" stroke="#000000" stroke-width="10" stroke-linecap="round" stroke-linejoin="round" stroke-miterlimit="10" d=" M46.024,372.995h126.559l18.372-55.115l17.351,55.115h18.372l8.165,25.516l20.413-351.101l30.619,495.011l16.33-169.427 l43.887-1.021c0,0,36.743-51.032,77.569,0l63.28-1.021l21.433-53.074l17.351,51.032l17.351,2.041l7.144,26.536l23.475-341.914 l29.599,486.846l15.31-171.468l50.011,2.041c1.816-0.164,34.666-51.238,75.528-1.021l118.394-1.021"/> <path fill="none" stroke="#000000" stroke-width="10" stroke-linecap="round" stroke-linejoin="round" stroke-miterlimit="10" d=" M1789.51,370.952h126.559l18.372-55.115l17.351,55.115h18.372l8.165,25.516l20.413-351.101l30.62,495.011l16.33-169.427 l43.887-1.021c0,0,36.743-51.032,77.569,0l63.28-1.021l21.433-53.074l17.351,51.032l17.351,2.041l7.144,26.536l23.475-341.914 l29.598,486.846l15.31-171.468l50.011,2.041c1.816-0.164,34.666-51.238,75.528-1.021l118.394-1.021"/> <path fill="none" stroke="#000000" stroke-width="10" stroke-linecap="round" d="M862.538,370.952"/> <path fill="none" stroke="#000000" stroke-width="10" stroke-linecap="round" d="M862.538,370.952V67.514h39.168v270.573h129.659 v32.865h76.473v-12.78c-42.141-24.689-68.368-73.54-68.368-136.238c0-96.344,59.878-159.372,140.914-159.372 c82.838,0,136.412,63.479,136.412,153.52c0,65.28-24.796,111.391-62.299,136.794"/> <path fill="none" stroke="#000000" stroke-width="10" stroke-linecap="round" d="M1107.837,358.173"/> <path fill="none" stroke="#000000" stroke-width="10" stroke-linecap="round" d="M1254.496,352.876"/> <path fill="none" stroke="#000000" stroke-width="10" stroke-linecap="round" d="M1434.298,370.952"/> <path fill="none" stroke="#000000" stroke-width="10" stroke-linecap="round" d="M1477.518,370.952"/> <polyline fill="none" stroke="#000000" stroke-width="10" stroke-linecap="round" points="1618.883,370.952 1618.883,67.514 1782.758,67.514 1782.758,100.379 1658.051,100.379 1658.051,196.273 1776.005,196.273 1776.005,228.688 1658.051,228.688 1658.051,338.087 1789.51,338.087 1789.51,370.952 "/> <path fill="none" stroke="#000000" stroke-width="10" stroke-linecap="round" d="M1618.883,370.952"/> <path fill="none" stroke="#000000" stroke-width="10" stroke-linecap="round" d="M1789.51,370.952"/> <path fill="none" stroke="#000000" stroke-width="10" stroke-linecap="round" d="M1618.883,370.952h-141.365l108.5-303.438h-41.869 l-51.323,149.918c-13.506,39.618-26.112,77.886-34.666,113.002h-0.901c-8.104-35.567-19.359-72.483-32.415-113.452l-47.271-149.468 h-42.32l99.045,303.438h-179.802v-18.077"/> </g> </svg>